{"accessors":[{"bufferView":0,"componentType":5126,"count":156,"max":[112.5,0.0,150.0],"min":[-112.5,-1.0,-150.0],"normalized":false,"type":"VEC3"},{"bufferView":1,"componentType":5126,"count":156,"max":[1.0,3.051897510886192e-05,7.630093023180962e-05,-1.0],"min":[-1.5260186046361923e-05,-1.0,-1.0,-1.0],"normalized":false,"type":"VEC4"},{"bufferView":2,"componentType":5126,"count":156,"max":[1.0,1.0,1.0],"min":[-1.0,-1.0,-1.0],"normalized":false,"type":"VEC3"},{"bufferView":3,"componentType":5126,"count":156,"max":[1.0,1.0],"min":[0.0,0.0],"normalized":false,"type":"VEC2"},{"bufferView":4,"componentType":5121,"count":156,"max":[155],"min":[0],"normalized":false,"type":"SCALAR"},{"bufferView":5,"componentType":5126,"count":2658,"max":[20.5,36.0,38.0],"min":[-19.5,0.0,-20.0],"normalized":false,"type":"VEC3"},{"bufferView":6,"componentType":5126,"count":2658,"max":[1.0,3.0518509447574615e-05,7.630093023180962e-05,1.0],"min":[-1.0,-1.0,-1.0,-1.0],"normalized":false,"type":"VEC4"},{"bufferView":7,"componentType":5126,"count":2658,"max":[1.0,1.0,1.0],"min":[-1.0,-1.0,-1.0],"normalized":false,"type":"VEC3"},{"bufferView":8,"componentType":5126,"count":2658,"max":[1.0,1.0],"min":[0.0,0.0],"normalized":false,"type":"VEC2"},{"bufferView":9,"componentType":5123,"count":2658,"max":[2657],"min":[0],"normalized":false,"type":"SCALAR"},{"bufferView":10,"componentType":5126,"count":4,"max":[2.0,0.0,2.0],"min":[0.0,0.0,-2.0],"normalized":false,"type":"VEC3"},{"bufferView":11,"componentType":5126,"count":4,"max":[1.0,0.0,-1.5259021893143654e-05,1.0],"min":[1.0,0.0,-1.5259021893143654e-05,1.0],"normalized":false,"type":"VEC4"},{"bufferView":12,"componentType":5126,"count":4,"max":[0.0,1.0,-1.5259021893143654e-05],"min":[0.0,1.0,-1.5259021893143654e-05],"normalized":false,"type":"VEC3"},{"bufferView":13,"componentType":5126,"count":4,"max":[1.0,1.0],"min":[0.0,0.0],"normalized":false,"type":"VEC2"},{"bufferView":14,"componentType":5121,"count":6,"max":[3],"min":[0],"normalized":false,"type":"SCALAR"},{"bufferView":15,"componentType":5126,"count":24,"max":[0.5,3.0,0.10000000149011612],"min":[-0.5,-3.0,-0.10000000149011612],"normalized":false,"type":"VEC3"},{"bufferView":16,"componentType":5126,"count":24,"max":[1.0,0.0,1.0,1.0],"min":[-1.0,-1.5259254723787308e-05,-1.0,1.0],"normalized":false,"type":"VEC4"},{"bufferView":17,"componentType":5126,"count":24,"max":[1.0,1.0,1.0],"min":[-1.0,-1.0,-1.0],"normalized":false,"type":"VEC3"},{"bufferView":18,"componentType":5126,"count":24,"max":[1.0,1.0],"min":[0.0,0.0],"normalized":false,"type":"VEC2"},{"bufferView":19,"componentType":5121,"count":36,"max":[23],"min":[0],"normalized":false,"type":"SCALAR"},{"bufferView":20,"componentType":5126,"count":96,"max":[1.5,0.25,1.5],"min":[-1.5,-0.25,-1.5],"normalized":false,"type":"VEC3"},{"bufferView":21,"componentType":5126,"count":96,"max":[1.0,6.474052497651428e-05,0.9906065464019775,1.0],"min":[-0.990612268447876,-2.157951530534774e-05,-0.9906095266342163,-1.0],"normalized":false,"type":"VEC4"},{"bufferView":22,"componentType":5126,"count":96,"max":[0.9906069040298462,1.0,0.9906066060066223],"min":[-0.9906069040298462,-1.0,-0.9905989766120911],"normalized":false,"type":"VEC3"},{"bufferView":23,"componentType":5126,"count":96,"max":[1.0,1.0],"min":[0.0,0.0],"normalized":false,"type":"VEC2"},{"bufferView":24,"componentType":5121,"count":96,"max":[95],"min":[0],"normalized":false,"type":"SCALAR"},{"bufferView":25,"componentType":5126,"count":132,"max":[4.0,6.0,4.0],"min":[-4.0,0.0,-6.0],"normalized":false,"type":"VEC3"},{"bufferView":26,"componentType":5126,"count":132,"max":[0.0,0.0,7.630093023180962e-05,1.0],"min":[-1.0,-1.0,-1.0,-1.0],"normalized":false,"type":"VEC4"},{"bufferView":27,"componentType":5126,"count":132,"max":[1.0,1.0,1.0],"min":[-1.0,-1.0,-1.0],"normalized":false,"type":"VEC3"},{"bufferView":28,"componentType":5126,"count":132,"max":[1.0,1.0],"min":[0.0,0.0],"normalized":false,"type":"VEC2"},{"bufferView":29,"componentType":5121,"count":132,"max":[131],"min":[0],"normalized":false,"type":"SCALAR"},{"bufferView":30,"componentType":5126,"count":132,"max":[8.0,6.0,6.0],"min":[-8.0,0.0,-6.0],"normalized":false,"type":"VEC3"},{"bufferView":31,"componentType":5126,"count":132,"max":[1.0,1.0],"min":[0.0,0.0],"normalized":false,"type":"VEC2"},{"bufferView":32,"componentType":5126,"count":612,"max":[6.0,8.0,13.0],"min":[-6.0,0.0,-13.0],"normalized":false,"type":"VEC3"},{"bufferView":33,"componentType":5126,"count":612,"max":[0.0,0.0,7.630093023180962e-05,1.0],"min":[-1.0,-1.0,-1.0,-1.0],"normalized":false,"type":"VEC4"},{"bufferView":34,"componentType":5126,"count":612,"max":[1.0,1.0,1.0],"min":[-1.0,-1.0,-1.0],"normalized":false,"type":"VEC3"},{"bufferView":35,"componentType":5126,"count":612,"max":[1.0,1.0],"min":[0.0,0.0],"normalized":false,"type":"VEC2"},{"bufferView":36,"componentType":5123,"count":612,"max":[611],"min":[0],"normalized":false,"type":"SCALAR"},{"bufferView":37,"componentType":5126,"count":180,"max":[4.0,17.25,4.0],"min":[-4.0,0.0,-4.0],"normalized":false,"type":"VEC3"},{"bufferView":38,"componentType":5126,"count":180,"max":[0.0,0.0,7.630093023180962e-05,-1.0],"min":[-1.0,-1.0,-1.0,-1.0],"normalized":false,"type":"VEC4"},{"bufferView":39,"componentType":5126,"count":180,"max":[1.0,1.0,1.0],"min":[-1.0,-1.0,-1.0],"normalized":false,"type":"VEC3"},{"bufferView":40,"componentType":5126,"count":180,"max":[1.0,1.0],"min":[0.0,0.0],"normalized":false,"type":"VEC2"},{"bufferView":41,"componentType":5121,"count":180,"max":[179],"min":[0],"normalized":false,"type":"SCALAR"},{"bufferView":42,"componentType":5126,"count":36,"max":[3.0,0.5,1.0],"min":[-3.0,-0.5,-1.0],"normalized":false,"type":"VEC3"},{"bufferView":43,"componentType":5126,"count":36,"max":[0.0,0.0,7.630093023180962e-05,-1.0],"min":[-1.0,-1.0,-1.0,-1.0],"normalized":false,"type":"VEC4"},{"bufferView":44,"componentType":5126,"count":36,"max":[1.0,1.0,1.0],"min":[-1.0,-1.0,-1.0],"normalized":false,"type":"VEC3"},{"bufferView":45,"componentType":5126,"count":36,"max":[1.0,1.0],"min":[0.0,0.0],"normalized":false,"type":"VEC2"},{"bufferView":46,"componentType":5121,"count":36,"max":[35],"min":[0],"normalized":false,"type":"SCALAR"},{"bufferView":47,"componentType":5126,"count":1,"max":[0.0],"min":[0.0],"normalized":false,"type":"SCALAR"},{"bufferView":48,"componentType":5126,"count":1,"max":[0.7071067690849304,0.0,0.0,0.7071067690849304],"min":[0.7071067690849304,0.0,0.0,0.7071067690849304],"normalized":false,"type":"VEC4"},{"bufferView":49,"componentType":5126,"count":3,"max":[0.5],"min":[0.0],"normalized":false,"type":"SCALAR"},{"bufferView":50,"componentType":5126,"count":3,"max":[0.7071067690849304,0.4999999701976776,0.0,0.7071067690849304],"min":[0.4999999701976776,0.0,-0.4999999701976776,0.4999999701976776],"normalized":false,"type":"VEC4"},{"bufferView":51,"componentType":5126,"count":3,"max":[0.7071067690849304,0.4999999701976776,0.0,0.7071067690849304],"min":[0.4999999701976776,0.0,-0.4999999701976776,0.4999999701976776],"normalized":false,"type":"VEC4"}],"animations":[{"channels":[{"sampler":0,"target":{"node":64,"path":"rotation"}}],"name":"RESET","samplers":[{"input":47,"interpolation":"LINEAR","output":48}]},{"channels":[{"sampler":0,"target":{"node":64,"path":"rotation"}}],"name":"close","samplers":[{"input":49,"interpolation":"LINEAR","output":50}]},{"channels":[{"sampler":0,"target":{"node":64,"path":"rotation"}}],"name":"open","samplers":[{"input":49,"interpolation":"LINEAR","output":51}]},{"channels":[{"sampler":0,"target":{"node":90,"path":"rotation"}}],"name":"RESET2","samplers":[{"input":47,"interpolation":"LINEAR","output":48}]},{"channels":[{"sampler":0,"target":{"node":90,"path":"rotation"}}],"name":"close2","samplers":[{"input":49,"interpolation":"LINEAR","output":50}]},{"channels":[{"sampler":0,"target":{"node":90,"path":"rotation"}}],"name":"open2","samplers":[{"input":49,"interpolation":"LINEAR","output":51}]},{"channels":[{"sampler":0,"target":{"node":94,"path":"rotation"}}],"name":"RESET3","samplers":[{"input":47,"interpolation":"LINEAR","output":48}]},{"channels":[{"sampler":0,"target":{"node":94,"path":"rotation"}}],"name":"close3","samplers":[{"input":49,"interpolation":"LINEAR","output":50}]},{"channels":[{"sampler":0,"target":{"node":94,"path":"rotation"}}],"name":"open3","samplers":[{"input":49,"interpolation":"LINEAR","output":51}]},{"channels":[{"sampler":0,"target":{"node":139,"path":"rotation"}}],"name":"RESET4","samplers":[{"input":47,"interpolation":"LINEAR","output":48}]},{"channels":[{"sampler":0,"target":{"node":139,"path":"rotation"}}],"name":"close4","samplers":[{"input":49,"interpolation":"LINEAR","output":50}]},{"channels":[{"sampler":0,"target":{"node":139,"path":"rotation"}}],"name":"open4","samplers":[{"input":49,"interpolation":"LINEAR","output":51}]}],"asset":{"generator":"Godot Engine v4.6.stable.official@89cea143987d564363e15d207438530651d943ac","version":"2.0"},"bufferViews":[{"buffer":0,"byteLength":1872,"byteStride":12,"target":34962},{"buffer":0,"byteLength":2496,"byteOffset":1872,"byteStride":16,"target":34962},{"buffer":0,"byteLength":1872,"byteOffset":4368,"byteStride":12,"target":34962},{"buffer":0,"byteLength":1248,"byteOffset":6240,"byteStride":8,"target":34962},{"buffer":0,"byteLength":156,"byteOffset":7488,"target":34963},{"buffer":0,"byteLength":31896,"byteOffset":7644,"byteStride":12,"target":34962},{"buffer":0,"byteLength":42528,"byteOffset":39540,"byteStride":16,"target":34962},{"buffer":0,"byteLength":31896,"byteOffset":82068,"byteStride":12,"target":34962},{"buffer":0,"byteLength":21264,"byteOffset":113964,"byteStride":8,"target":34962},{"buffer":0,"byteLength":5316,"byteOffset":135228,"target":34963},{"buffer":0,"byteLength":48,"byteOffset":140544,"byteStride":12,"target":34962},{"buffer":0,"byteLength":64,"byteOffset":140592,"byteStride":16,"target":34962},{"buffer":0,"byteLength":48,"byteOffset":140656,"byteStride":12,"target":34962},{"buffer":0,"byteLength":32,"byteOffset":140704,"byteStride":8,"target":34962},{"buffer":0,"byteLength":6,"byteOffset":140736,"target":34963},{"buffer":0,"byteLength":288,"byteOffset":140744,"byteStride":12,"target":34962},{"buffer":0,"byteLength":384,"byteOffset":141032,"byteStride":16,"target":34962},{"buffer":0,"byteLength":288,"byteOffset":141416,"byteStride":12,"target":34962},{"buffer":0,"byteLength":192,"byteOffset":141704,"byteStride":8,"target":34962},{"buffer":0,"byteLength":36,"byteOffset":141896,"target":34963},{"buffer":0,"byteLength":1152,"byteOffset":141932,"byteStride":12,"target":34962},{"buffer":0,"byteLength":1536,"byteOffset":143084,"byteStride":16,"target":34962},{"buffer":0,"byteLength":1152,"byteOffset":144620,"byteStride":12,"target":34962},{"buffer":0,"byteLength":768,"byteOffset":145772,"byteStride":8,"target":34962},{"buffer":0,"byteLength":96,"byteOffset":146540,"target":34963},{"buffer":0,"byteLength":1584,"byteOffset":146636,"byteStride":12,"target":34962},{"buffer":0,"byteLength":2112,"byteOffset":148220,"byteStride":16,"target":34962},{"buffer":0,"byteLength":1584,"byteOffset":150332,"byteStride":12,"target":34962},{"buffer":0,"byteLength":1056,"byteOffset":151916,"byteStride":8,"target":34962},{"buffer":0,"byteLength":132,"byteOffset":152972,"target":34963},{"buffer":0,"byteLength":1584,"byteOffset":153104,"byteStride":12,"target":34962},{"buffer":0,"byteLength":1056,"byteOffset":154688,"byteStride":8,"target":34962},{"buffer":0,"byteLength":7344,"byteOffset":155744,"byteStride":12,"target":34962},{"buffer":0,"byteLength":9792,"byteOffset":163088,"byteStride":16,"target":34962},{"buffer":0,"byteLength":7344,"byteOffset":172880,"byteStride":12,"target":34962},{"buffer":0,"byteLength":4896,"byteOffset":180224,"byteStride":8,"target":34962},{"buffer":0,"byteLength":1224,"byteOffset":185120,"target":34963},{"buffer":0,"byteLength":2160,"byteOffset":186344,"byteStride":12,"target":34962},{"buffer":0,"byteLength":2880,"byteOffset":188504,"byteStride":16,"target":34962},{"buffer":0,"byteLength":2160,"byteOffset":191384,"byteStride":12,"target":34962},{"buffer":0,"byteLength":1440,"byteOffset":193544,"byteStride":8,"target":34962},{"buffer":0,"byteLength":180,"byteOffset":194984,"target":34963},{"buffer":0,"byteLength":432,"byteOffset":195164,"byteStride":12,"target":34962},{"buffer":0,"byteLength":576,"byteOffset":195596,"byteStride":16,"target":34962},{"buffer":0,"byteLength":432,"byteOffset":196172,"byteStride":12,"target":34962},{"buffer":0,"byteLength":288,"byteOffset":196604,"byteStride":8,"target":34962},{"buffer":0,"byteLength":36,"byteOffset":196892,"target":34963},{"buffer":0,"byteLength":4,"byteOffset":196928},{"buffer":0,"byteLength":16,"byteOffset":196932},{"buffer":0,"byteLength":12,"byteOffset":196948},{"buffer":0,"byteLength":48,"byteOffset":196960},{"buffer":0,"byteLength":48,"byteOffset":197008}],"buffers":[{"byteLength":197056,"uri":"forest0.bin"}],"cameras":[{"perspective":{"yfov":1.0471975803375244,"zfar":150.0,"znear":0.05000000074505806},"type":"perspective"}],"extensions":{"KHR_lights_punctual":{"lights":[{"type":"directional"}]},"OMI_physics_shape":{"shapes":[{"box":{"size":[1.2000000476837158,2.299999952316284,1.0]},"type":"box"},{"box":{"size":[0.800000011920929,2.299999952316284,0.6000000238418579]},"type":"box"},{"box":{"size":[2.0,4.0,0.10000000149011612]},"type":"box"},{"trimesh":{"mesh":5},"type":"trimesh"},{"box":{"size":[1.0,6.0,1.2999999523162842]},"type":"box"}]}},"extensionsUsed":["GODOT_single_root","KHR_lights_punctual","OMI_physics_body","OMI_physics_shape"],"materials":[{"name":"debug mat","pbrMetallicRoughness":{"baseColorFactor":[1.0,1.0,1.0,1.0],"metallicFactor":0.0,"roughnessFactor":1.0}},{"doubleSided":true,"name":"debug mat (brown)","pbrMetallicRoughness":{"baseColorFactor":[1.0,1.0,1.0,1.0],"metallicFactor":0.0,"roughnessFactor":1.0}},{"doubleSided":true,"name":"debug mat (yellow)","pbrMetallicRoughness":{"baseColorFactor":[1.0,1.0,1.0,1.0],"metallicFactor":0.0,"roughnessFactor":1.0}},{"name":"debug mat (psx)"}],"meshes":[{"name":"ground2","primitives":[{"attributes":{"NORMAL":2,"POSITION":0,"TANGENT":1,"TEXCOORD_0":3},"indices":4,"material":0,"mode":4}]},{"name":"church2","primitives":[{"attributes":{"NORMAL":7,"POSITION":5,"TANGENT":6,"TEXCOORD_0":8},"indices":9,"material":1,"mode":4}]},{"primitives":[{"attributes":{"NORMAL":12,"POSITION":10,"TANGENT":11,"TEXCOORD_0":13},"indices":14,"material":2,"mode":4}]},{"primitives":[{"attributes":{"NORMAL":12,"POSITION":10,"TANGENT":11,"TEXCOORD_0":13},"indices":14,"material":2,"mode":4}]},{"primitives":[{"attributes":{"NORMAL":12,"POSITION":10,"TANGENT":11,"TEXCOORD_0":13},"indices":14,"material":2,"mode":4}]},{"primitives":[{"attributes":{"NORMAL":17,"POSITION":15,"TANGENT":16,"TEXCOORD_0":18},"indices":19,"material":2,"mode":4}]},{"primitives":[{"attributes":{"NORMAL":17,"POSITION":15,"TANGENT":16,"TEXCOORD_0":18},"indices":19,"material":2,"mode":4}]},{"name":"CSGBox3D183","primitives":[{"attributes":{"NORMAL":22,"POSITION":20,"TANGENT":21,"TEXCOORD_0":23},"indices":24,"material":3,"mode":4}]},{"name":"CSGBox3D193","primitives":[{"attributes":{"NORMAL":22,"POSITION":20,"TANGENT":21,"TEXCOORD_0":23},"indices":24,"material":3,"mode":4}]},{"name":"mausoleum2","primitives":[{"attributes":{"NORMAL":27,"POSITION":25,"TANGENT":26,"TEXCOORD_0":28},"indices":29,"material":1,"mode":4}]},{"name":"tool shed2","primitives":[{"attributes":{"NORMAL":27,"POSITION":30,"TANGENT":26,"TEXCOORD_0":31},"indices":29,"material":1,"mode":4}]},{"name":"garage2","primitives":[{"attributes":{"NORMAL":34,"POSITION":32,"TANGENT":33,"TEXCOORD_0":35},"indices":36,"material":1,"mode":4}]},{"primitives":[{"attributes":{"NORMAL":12,"POSITION":10,"TANGENT":11,"TEXCOORD_0":13},"indices":14,"material":2,"mode":4}]},{"name":"statue2","primitives":[{"attributes":{"NORMAL":39,"POSITION":37,"TANGENT":38,"TEXCOORD_0":40},"indices":41,"material":3,"mode":4}]},{"name":"bench8","primitives":[{"attributes":{"NORMAL":44,"POSITION":42,"TANGENT":43,"TEXCOORD_0":45},"indices":46,"material":1,"mode":4}]},{"name":"bench23","primitives":[{"attributes":{"NORMAL":44,"POSITION":42,"TANGENT":43,"TEXCOORD_0":45},"indices":46,"material":1,"mode":4}]},{"name":"bench33","primitives":[{"attributes":{"NORMAL":44,"POSITION":42,"TANGENT":43,"TEXCOORD_0":45},"indices":46,"material":1,"mode":4}]},{"name":"bench43","primitives":[{"attributes":{"NORMAL":44,"POSITION":42,"TANGENT":43,"TEXCOORD_0":45},"indices":46,"material":1,"mode":4}]},{"name":"bench53","primitives":[{"attributes":{"NORMAL":44,"POSITION":42,"TANGENT":43,"TEXCOORD_0":45},"indices":46,"material":1,"mode":4}]},{"name":"bench63","primitives":[{"attributes":{"NORMAL":44,"POSITION":42,"TANGENT":43,"TEXCOORD_0":45},"indices":46,"material":1,"mode":4}]}],"nodes":[{"children":[1,2,3,32],"name":"forest"},{"name":"WorldEnvironment"},{"extensions":{"KHR_lights_punctual":{"light":0}},"name":"DirectionalLight3D","rotation":[-0.1294095516204834,0.836516261100769,0.4829629361629486,0.2241438925266266]},{"children":[4,6,8,12,14,15,16,17,18,19,20,21,22,23,24,25,27],"extensions":{"OMI_physics_body":{"motion":{"type":"kinematic"}}},"name":"goose","translation":[-52.0,0.0,24.0]},{"children":[5],"name":"status effect handler"},{"name":"MultiplayerSpawner"},{"children":[7],"name":"states"},{"name":"default"},{"children":[9],"name":"pivot","translation":[0.0,1.9999998807907104,0.0]},{"camera":0,"children":[10,11],"name":"Camera3D","translation":[0.0,0.10000002384185791,0.0]},{"name":"Marker3D","translation":[0.0,0.0,-2.0]},{"name":"InteractionRayCast3D"},{"children":[13],"extensions":{"OMI_physics_body":{"trigger":{"nodes":[13.0]}}},"name":"InteractionArea3D"},{"extensions":{"OMI_physics_body":{"trigger":null}},"name":"CollisionShape3D","translation":[0.0,1.149999976158142,0.0]},{"name":"StairAheadRayCast3D","translation":[0.0,0.550000011920929,-1.0]},{"name":"StairBelowRayCast3D"},{"extensions":{"OMI_physics_body":{"collider":{"shape":1}}},"name":"CollisionShape3D2","translation":[2.9802322387695313e-08,1.149999976158142,2.2351741790771484e-08]},{"name":"KnockbackTimer"},{"name":"CoyoteTimer"},{"name":"WallSlideTimer"},{"name":"AudioListener3D"},{"name":"VisibleOnScreenNotifier3D"},{"name":"NavigationAgent3D"},{"name":"item holder","rotation":[0.0,0.0,0.258819043636322,0.9659258127212524],"translation":[0.800000011920929,1.0,-1.25]},{"name":"DebugLabel"},{"children":[26],"extensions":{"OMI_physics_body":{"trigger":{"nodes":[26.0]}}},"name":"hurtbox"},{"extensions":{"OMI_physics_body":{"trigger":null}},"name":"CollisionShape3D3","translation":[0.0,1.149999976158142,0.0]},{"children":[28,29,30,31],"name":"UI"},{"name":"bloodoverlay"},{"name":"crosshair"},{"name":"psx shader"},{"name":"InteractionLabel"},{"children":[33],"name":"NavigationRegion3D"},{"children":[34,41,115,116,117,121,125,141,146,147,148,149,150,151],"name":"blockout"},{"children":[35,36,37,38,39,40],"mesh":0,"name":"ground2"},{"name":"CSGBox3D","rotation":[0.0,-0.7071067690849304,0.0,0.7071067690849304],"translation":[0.0,-0.5,-25.0]},{"name":"CSGBox3D2","rotation":[0.0,-0.7071067690849304,0.0,0.7071067690849304],"translation":[0.0,-0.5,-75.0]},{"name":"CSGBox3D3","rotation":[0.0,-0.7071067690849304,0.0,0.7071067690849304],"translation":[0.0,-0.5,-125.0]},{"name":"CSGBox3D4","rotation":[0.0,-0.7071067690849304,0.0,0.7071067690849304],"translation":[0.0,-0.5,125.0]},{"name":"CSGBox3D5","rotation":[0.0,-0.7071067690849304,0.0,0.7071067690849304],"translation":[0.0,-0.5,75.0]},{"name":"CSGBox3D6","rotation":[0.0,-0.7071067690849304,0.0,0.7071067690849304],"translation":[0.0,-0.5,25.0]},{"children":[42,43,44,45,46,47,48,49,50,51,52,53,54,55,56,57,58,59,60,61,62,66,67,68,69,70,71,72,73,74,75,76,77,78,79,80,81,82,83,84,85,86,87,88,92,96,97,98,99,100,101,102,103,109],"mesh":1,"name":"church2","translation":[-51.5,0.0,-22.0]},{"name":"CSGBox3D7","translation":[0.5,4.0,0.0]},{"name":"CSGBox3D22","translation":[0.5,4.0,0.0]},{"name":"CSGBox3D9","translation":[0.5,12.0,12.0]},{"name":"CSGBox3D21","translation":[0.5,11.899999618530273,11.999998092651367]},{"name":"CSGBox3D10","translation":[0.5,21.0,36.0]},{"name":"CSGBox3D11","translation":[0.5,31.0,36.0]},{"name":"CSGBox3D32","translation":[0.5,4.0,26.0]},{"name":"CSGBox3D72","translation":[-9.5,8.100000381469727,26.0]},{"name":"CSGBox3D222","translation":[10.5,8.100000381469727,26.0]},{"name":"CSGBox3D23","translation":[14.5,8.100000381469727,0.0]},{"name":"CSGBox3D24","translation":[-13.5,8.100000381469727,0.0]},{"name":"CSGBox3D42","translation":[0.5,4.0,25.899999618530273]},{"name":"CSGBox3D52","translation":[0.4999961853027344,4.0,14.000000953674316]},{"name":"CSGBox3D8","translation":[0.5,12.0,13.899999618530273]},{"name":"CSGBox3D62","translation":[0.4999961853027344,4.0,38.0]},{"name":"CSGBox3D12","translation":[-4.500003814697266,4.0,38.0]},{"name":"CSGBox3D13","translation":[-6.500003814697266,4.0,38.0]},{"name":"CSGBox3D49","translation":[-12.5,2.500000238418579,-17.0]},{"name":"CSGBox3D47","translation":[-15.5,2.0,-14.0]},{"name":"CSGBox3D50","translation":[-12.5,2.4000003337860107,-16.900001525878906]},{"children":[63,64,65],"extensions":{"OMI_physics_body":{"motion":{"type":"static"}}},"name":"door3","rotation":[0.0,1.0,0.0,0.0],"translation":[-15.5,2.0,-14.0]},{"extensions":{"OMI_physics_body":{"collider":{"shape":2}}},"name":"CollisionShape3D4"},{"mesh":2,"name":"MeshInstance3D","rotation":[0.7071067690849304,0.0,0.0,0.7071067690849304],"translation":[-1.0,0.0,0.0]},{"name":"NavigationLink3D","translation":[0.0,-2.0,0.0]},{"name":"CSGBox3D14","translation":[-8.500003814697266,4.0,38.0]},{"name":"CSGBox3D15","translation":[9.499996185302734,4.0,38.0]},{"name":"CSGBox3D16","translation":[7.499996185302734,4.0,38.0]},{"name":"CSGBox3D17","translation":[5.499996185302734,4.0,38.0]},{"name":"CSGBox3D18","rotation":[0.0,0.7071067690849304,0.0,0.7071067690849304],"translation":[12.499996185302734,4.0,31.0]},{"name":"CSGBox3D19","rotation":[0.0,0.7071067690849304,0.0,0.7071067690849304],"translation":[12.499996185302734,4.0,33.0]},{"name":"CSGBox3D20","rotation":[0.0,0.7071067690849304,0.0,0.7071067690849304],"translation":[12.499996185302734,4.0,35.0]},{"name":"CSGBox3D25","rotation":[0.0,0.7071067690849304,0.0,0.7071067690849304],"translation":[12.499996185302734,4.0,25.0]},{"name":"CSGBox3D26","rotation":[0.0,0.7071067690849304,0.0,0.7071067690849304],"translation":[12.499996185302734,4.0,27.0]},{"name":"CSGBox3D27","rotation":[0.0,0.7071067690849304,0.0,0.7071067690849304],"translation":[12.499996185302734,4.0,29.0]},{"name":"CSGBox3D28","rotation":[0.0,0.7071067690849304,0.0,0.7071067690849304],"translation":[12.499996185302734,4.0,19.0]},{"name":"CSGBox3D29","rotation":[0.0,0.7071067690849304,0.0,0.7071067690849304],"translation":[12.499996185302734,4.0,21.0]},{"name":"CSGBox3D30","rotation":[0.0,0.7071067690849304,0.0,0.7071067690849304],"translation":[12.499996185302734,4.0,23.0]},{"name":"CSGBox3D31","rotation":[0.0,0.7071067690849304,0.0,0.7071067690849304],"translation":[-11.500003814697266,4.0,31.0]},{"name":"CSGBox3D322","rotation":[0.0,0.7071067690849304,0.0,0.7071067690849304],"translation":[-11.500003814697266,4.0,33.0]},{"name":"CSGBox3D33","rotation":[0.0,0.7071067690849304,0.0,0.7071067690849304],"translation":[-11.500003814697266,4.0,35.0]},{"name":"CSGBox3D34","rotation":[0.0,0.7071067690849304,0.0,0.7071067690849304],"translation":[-11.500003814697266,4.0,25.0]},{"name":"CSGBox3D35","rotation":[0.0,0.7071067690849304,0.0,0.7071067690849304],"translation":[-11.500003814697266,4.0,27.0]},{"name":"CSGBox3D36","rotation":[0.0,0.7071067690849304,0.0,0.7071067690849304],"translation":[-11.500003814697266,4.0,29.0]},{"name":"CSGBox3D37","rotation":[0.0,0.7071067690849304,0.0,0.7071067690849304],"translation":[-11.500003814697266,4.0,19.0]},{"name":"CSGBox3D38","rotation":[0.0,0.7071067690849304,0.0,0.7071067690849304],"translation":[-11.500003814697266,4.0,21.0]},{"name":"CSGBox3D39","rotation":[0.0,0.7071067690849304,0.0,0.7071067690849304],"translation":[-11.500003814697266,4.0,23.0]},{"children":[89,90,91],"extensions":{"OMI_physics_body":{"motion":{"type":"static"}}},"name":"door","scale":[1.0,2.0,1.0],"translation":[-0.5,4.0,38.0]},{"extensions":{"OMI_physics_body":{"collider":{"shape":2}}},"name":"CollisionShape3D5"},{"mesh":3,"name":"MeshInstance3D2","rotation":[0.7071067690849304,0.0,0.0,0.7071067690849304],"translation":[-1.0,0.0,0.0]},{"name":"NavigationLink3D2","translation":[0.0,-2.0,0.0]},{"children":[93,94,95],"extensions":{"OMI_physics_body":{"motion":{"type":"static"}}},"name":"door2","rotation":[0.0,-4.371138828673793e-08,1.0,0.0],"scale":[1.0,2.0,1.0],"translation":[1.5,4.0,38.0]},{"extensions":{"OMI_physics_body":{"collider":{"shape":2}}},"name":"CollisionShape3D6"},{"mesh":4,"name":"MeshInstance3D3","rotation":[0.7071067690849304,0.0,0.0,0.7071067690849304],"translation":[-1.0,0.0,0.0]},{"name":"NavigationLink3D3","translation":[0.0,-2.0,0.0]},{"name":"CSGBox3D40","translation":[0.5,0.5,-10.0]},{"name":"bench","translation":[-7.5,0.5,-1.0]},{"name":"bench2","translation":[8.5,0.5,-1.0]},{"name":"bench3","translation":[-7.5,0.5,5.0]},{"name":"bench4","translation":[8.5,0.5,5.0]},{"name":"bench5","translation":[-7.5,0.5,11.0]},{"name":"bench6","translation":[8.5,0.5,11.0]},{"children":[104,105,106,108],"extensions":{"OMI_physics_body":{"motion":{"type":"static"}}},"name":"ladder","rotation":[0.0,0.7071067690849304,0.0,0.7071067690849304],"scale":[1.0,1.2999999523162842,1.0],"translation":[20.600000381469727,4.0,9.5]},{"mesh":5,"name":"MeshInstance3D4"},{"extensions":{"OMI_physics_body":{"collider":{"shape":3}}},"name":"CollisionShape3D7"},{"children":[107],"extensions":{"OMI_physics_body":{"trigger":{"nodes":[107.0]}}},"name":"Area3D","translation":[0.0,0.0,1.0]},{"extensions":{"OMI_physics_body":{"trigger":null}},"name":"CollisionShape3D8","translation":[0.0,0.0,-0.6000000238418579]},{"name":"top"},{"children":[110,111,112,114],"extensions":{"OMI_physics_body":{"motion":{"type":"static"}}},"name":"ladder2","rotation":[0.0,0.7071067690849304,0.0,0.7071067690849304],"scale":[1.0,1.2999999523162842,1.0],"translation":[8.599998474121094,12.0,9.5]},{"mesh":6,"name":"MeshInstance3D5"},{"extensions":{"OMI_physics_body":{"collider":{"shape":3}}},"name":"CollisionShape3D9"},{"children":[113],"extensions":{"OMI_physics_body":{"trigger":{"nodes":[113.0]}}},"name":"Area3D2","translation":[0.0,0.0,1.0]},{"extensions":{"OMI_physics_body":{"trigger":null}},"name":"CollisionShape3D10","translation":[0.0,0.0,-0.6000000238418579]},{"name":"top2"},{"mesh":7,"name":"CSGBox3D183","rotation":[0.7071067690849304,0.0,0.0,0.7071067690849304],"translation":[-51.000003814697266,12.0,16.299999237060547]},{"mesh":8,"name":"CSGBox3D193","rotation":[0.7071067690849304,0.0,0.0,0.7071067690849304],"translation":[-51.000003814697266,11.5,-8.500000953674316]},{"children":[118,119,120],"mesh":9,"name":"mausoleum2","translation":[-61.0,0.0,-89.0]},{"name":"CSGBox3D41","translation":[0.0,3.0,-1.0]},{"name":"CSGBox3D210","translation":[0.0,2.9000000953674316,-1.0]},{"name":"CSGBox3D73","translation":[0.0,2.0,3.5]},{"children":[122,123,124],"mesh":10,"name":"tool shed2","translation":[13.0,0.0,-126.0]},{"name":"CSGBox3D43","translation":[0.0,3.0,0.0]},{"name":"CSGBox3D211","translation":[0.0,2.9000000953674316,0.0]},{"name":"CSGBox3D82","translation":[0.0,2.0,5.5]},{"children":[126,127,128,129,130,131,132,133,134,135,136,137],"mesh":11,"name":"garage2","translation":[71.0,0.0,92.0]},{"name":"CSGBox3D44","translation":[0.0,4.0,0.0]},{"name":"CSGBox3D212","translation":[0.0,3.9000000953674316,0.0]},{"name":"CSGBox3D310","translation":[-6.0,2.9000000953674316,-9.0]},{"name":"CSGBox3D45","translation":[-6.0,2.9000000953674316,-5.0]},{"name":"CSGBox3D53","translation":[-6.0,2.9000000953674316,-1.0]},{"name":"CSGBox3D74","translation":[6.0,5.900000095367432,0.0]},{"name":"CSGBox3D102","translation":[6.0,5.900000095367432,-4.0]},{"name":"CSGBox3D112","translation":[6.0,5.900000095367432,-8.0]},{"name":"CSGBox3D83","translation":[6.0,5.900000095367432,4.0]},{"name":"CSGBox3D92","translation":[6.0,5.900000095367432,8.0]},{"name":"CSGBox3D63","translation":[-6.0,1.9000000953674316,8.0]},{"children":[138,139,140],"extensions":{"OMI_physics_body":{"motion":{"type":"static"}}},"name":"door4","rotation":[0.0,-0.7071067690849304,0.0,0.7071067690849304],"translation":[-6.0,2.0,8.0]},{"extensions":{"OMI_physics_body":{"collider":{"shape":2}}},"name":"CollisionShape3D11"},{"mesh":12,"name":"MeshInstance3D6","rotation":[0.7071067690849304,0.0,0.0,0.7071067690849304],"translation":[-1.0,0.0,0.0]},{"name":"NavigationLink3D4","translation":[0.0,-2.0,0.0]},{"children":[142,143,144,145],"mesh":13,"name":"statue2","translation":[-52.0,0.0,105.0]},{"name":"CSGBox3D46","translation":[0.0,0.5,0.0]},{"name":"CSGBox3D213","translation":[0.0,1.125,0.0]},{"name":"CSGBox3D311","translation":[0.0,6.25,0.0]},{"name":"CSGBox3D48","translation":[0.0,14.25,0.0]},{"mesh":14,"name":"bench8","rotation":[0.0,0.7071067690849304,0.0,0.7071067690849304],"translation":[12.0,0.5,-23.0]},{"mesh":15,"name":"bench23","rotation":[0.0,0.7071067690849304,0.0,0.7071067690849304],"translation":[12.0,0.5,-31.0]},{"mesh":16,"name":"bench33","rotation":[0.0,0.7071067690849304,0.0,0.7071067690849304],"translation":[95.0,0.5,-61.0]},{"mesh":17,"name":"bench43","rotation":[0.0,0.7071067690849304,0.0,0.7071067690849304],"translation":[95.0,0.5,-69.0]},{"mesh":18,"name":"bench53","rotation":[0.0,0.7071067690849304,0.0,0.7071067690849304],"translation":[-21.0,0.5,75.0]},{"mesh":19,"name":"bench63","rotation":[0.0,1.0,0.0,-4.371138828673793e-08],"translation":[54.0,0.5,46.0]}],"scene":0,"scenes":[{"nodes":[0]}]}